<svg xmlns="http://www.w3.org/2000/svg" version="1.1" xmlns:xlink="http://www.w3.org/1999/xlink" xmlns:svgjs="http://svgjs.dev/svgjs" width="1000" height="623" viewBox="0 0 1000 623"><g transform="matrix(1,0,0,1,-0.6060606060606233,0.2522267206477409)"><svg viewBox="0 0 396 247" data-background-color="#2196f3" preserveAspectRatio="xMidYMid meet" height="623" width="1000" xmlns="http://www.w3.org/2000/svg" xmlns:xlink="http://www.w3.org/1999/xlink"><defs></defs><g id="tight-bounds" transform="matrix(1,0,0,1,0.2400000000000091,-0.09999999999999432)"><svg viewBox="0 0 395.52 247.2" height="247.2" width="395.52"><g><svg></svg></g><g><svg viewBox="0 0 395.52 247.2" height="247.2" width="395.52"><g transform="matrix(1,0,0,1,75.54432000000001,82.49455307239349)"><svg viewBox="0 0 244.43135999999996 82.21089385521302" height="82.21089385521302" width="244.43135999999996"><g><svg viewBox="0 0 244.43135999999996 82.21089385521302" height="82.21089385521302" width="244.43135999999996"><g><svg viewBox="0 0 244.43135999999996 82.21089385521302" height="82.21089385521302" width="244.43135999999996"><g><svg viewBox="0 0 244.43135999999996 82.21089385521302" height="82.21089385521302" width="244.43135999999996"><g><svg viewBox="0 0 244.43135999999996 82.21089385521302" height="82.21089385521302" width="244.43135999999996"><g><svg viewBox="0 0 244.43135999999996 82.21089385521302" height="82.21089385521302" width="244.43135999999996"><g transform="matrix(1,0,0,1,0,0)"><svg width="244.43135999999996" viewBox="1.5 -38.130001068115234 144.33999633789062 48.560001373291016" height="82.21089385521302" data-palette-color="#ffffff"><path d="M25.2 0L22.18-9.18 7.53-9.18 4.5 0 1.5 0 12.88-34.35 17.1-34.35 28.5 0 25.2 0ZM14.9-31.38L8.6-12.08 21.13-12.08 14.9-31.38ZM38.57 0L35.47 0 35.47-26.25 38.07-26.25 38.32-22.43Q39.87-24.48 42.41-25.6 44.95-26.73 47.15-26.73L47.15-26.73Q51.17-26.73 52.89-24.68 54.6-22.63 54.6-19L54.6-19 54.6 0 51.5 0 51.5-15.68Q51.5-18.68 51.17-20.55 50.85-22.43 49.77-23.29 48.7-24.15 46.4-24.15L46.4-24.15Q44.65-24.15 43.11-23.39 41.57-22.63 40.41-21.51 39.25-20.4 38.57-19.35L38.57-19.35 38.57 0ZM66.8-26.25L77.95-26.25 77.95-2.7 85.57-2.7 85.57 0 66.55 0 66.55-2.7 74.84-2.7 74.84-23.55 66.8-23.55 66.8-26.25ZM75.02-38.13L75.02-38.13Q76.22-38.13 76.92-37.4 77.62-36.68 77.62-35.65L77.62-35.65Q77.62-34.55 76.92-33.81 76.22-33.08 75.02-33.08L75.02-33.08Q73.9-33.08 73.2-33.81 72.5-34.55 72.5-35.65L72.5-35.65Q72.5-36.68 73.2-37.4 73.9-38.13 75.02-38.13ZM113.19-26.25L116.42-26.25 107.04 0.23Q106.19 2.65 104.94 4.83 103.69 7 101.62 8.51 99.54 10.03 96.22 10.43L96.22 10.43 95.67 7.73Q98.42 7.23 99.98 6.23 101.54 5.23 102.43 3.68 103.32 2.13 104.02 0L104.02 0 102.99 0 93.57-26.25 96.92-26.25 105.19-2.65 113.19-26.25ZM135.06-26.73L135.06-26.73Q138.67-26.73 141.06-25.05 143.47-23.38 144.65-20.33 145.84-17.28 145.84-13.13L145.84-13.13Q145.84-9.22 144.62-6.15 143.39-3.08 140.98-1.29 138.56 0.5 134.99 0.5L134.99 0.5Q131.39 0.5 128.98-1.21 126.57-2.93 125.35-5.99 124.14-9.05 124.14-13.08L124.14-13.08Q124.14-17.1 125.37-20.18 126.59-23.25 129.03-24.99 131.47-26.73 135.06-26.73ZM135.06-24L135.06-24Q131.37-24 129.45-21.33 127.54-18.65 127.54-13.08L127.54-13.08Q127.54-7.63 129.42-4.94 131.29-2.25 134.99-2.25L134.99-2.25Q138.69-2.25 140.56-4.94 142.44-7.63 142.44-13.13L142.44-13.13Q142.44-18.65 140.58-21.33 138.72-24 135.06-24Z" opacity="1" transform="matrix(1,0,0,1,0,0)" fill="#ffffff" class="undefined-text-0" data-fill-palette-color="primary" id="text-0"></path></svg></g></svg></g></svg></g></svg></g></svg></g></svg></g></svg></g><g><path d="M244.431 184.113A122.216 122.216 0 1 1 244.431 63.087L237.017 63.087A114.802 114.802 0 1 0 237.017 184.113L244.431 184.113" fill="#ffffff" stroke="transparent" data-fill-palette-color="tertiary"></path></g></svg></g></svg><rect width="395.52" height="247.2" fill="none" stroke="none" visibility="hidden"></rect></g></svg></g></svg>